<svg width="33" height="28" viewBox="0 0 33 28" fill="none" xmlns="http://www.w3.org/2000/svg">
<g filter="url(#filter0_d_10112_31)">
<g clip-path="url(#clip0_10112_31)">
<path fill-rule="evenodd" clip-rule="evenodd" d="M25.986 15.5604C25.986 15.5604 27.9264 17.4768 28.4064 18.3636C28.4158 18.3764 28.4231 18.3905 28.428 18.4056C28.6236 18.7332 28.6716 18.99 28.5756 19.1796C28.4136 19.4928 27.8652 19.65 27.6792 19.6632H24.2496C24.0108 19.6632 23.514 19.6008 22.9092 19.1832C22.4472 18.8604 21.9876 18.3288 21.5424 17.8092C20.8776 17.0376 20.3028 16.368 19.7208 16.368C19.6473 16.3678 19.5743 16.38 19.5048 16.404C19.0644 16.5432 18.5052 17.1708 18.5052 18.8424C18.5052 19.3656 18.0924 19.6632 17.8032 19.6632H16.2324C15.6972 19.6632 12.9108 19.476 10.44 16.8708C7.41244 13.6812 4.69324 7.28278 4.66684 7.22638C4.49764 6.81238 4.85284 6.58678 5.23684 6.58678H8.70004C9.16444 6.58678 9.31564 6.86758 9.42124 7.11958C9.54364 7.40878 9.99724 8.56558 10.7412 9.86518C11.946 11.9796 12.6864 12.84 13.278 12.84C13.3892 12.8403 13.4985 12.8113 13.5948 12.756C14.3676 12.3312 14.2236 9.57118 14.1876 9.00238C14.1876 8.89198 14.1864 7.76998 13.7904 7.22758C13.5072 6.83878 13.0248 6.68758 12.7332 6.63238C12.8112 6.51958 12.9768 6.34678 13.1892 6.24478C13.7184 5.98078 14.6748 5.94238 15.624 5.94238H16.1508C17.1804 5.95678 17.4468 6.02278 17.8212 6.11758C18.5748 6.29758 18.5892 6.78598 18.5232 8.44918C18.504 8.92438 18.4836 9.45958 18.4836 10.0896C18.4836 10.224 18.4776 10.374 18.4776 10.5264C18.4548 11.3796 18.4248 12.3408 19.0272 12.7356C19.1054 12.7843 19.1956 12.81 19.2876 12.81C19.4964 12.81 20.1216 12.81 21.8172 9.89998C22.5612 8.61478 23.1372 7.09918 23.1768 6.98518C23.2104 6.92158 23.3112 6.74278 23.4336 6.67078C23.5207 6.62446 23.6182 6.60132 23.7168 6.60358H27.7908C28.2348 6.60358 28.536 6.67078 28.5948 6.83878C28.6932 7.11118 28.5756 7.94278 26.7156 10.458C26.4024 10.8768 26.1276 11.2392 25.8864 11.556C24.2004 13.7688 24.2004 13.8804 25.986 15.5604Z" fill="white"/>
</g>
</g>
<defs>
<filter id="filter0_d_10112_31" x="0.623535" y="0.802734" width="32" height="32" filterUnits="userSpaceOnUse" color-interpolation-filters="sRGB">
<feFlood flood-opacity="0" result="BackgroundImageFix"/>
<feColorMatrix in="SourceAlpha" type="matrix" values="0 0 0 0 0 0 0 0 0 0 0 0 0 0 0 0 0 0 127 0" result="hardAlpha"/>
<feOffset dy="4"/>
<feGaussianBlur stdDeviation="2"/>
<feComposite in2="hardAlpha" operator="out"/>
<feColorMatrix type="matrix" values="0 0 0 0 0 0 0 0 0 0 0 0 0 0 0 0 0 0 0.25 0"/>
<feBlend mode="normal" in2="BackgroundImageFix" result="effect1_dropShadow_10112_31"/>
<feBlend mode="normal" in="SourceGraphic" in2="effect1_dropShadow_10112_31" result="shape"/>
</filter>
<clipPath id="clip0_10112_31">
<rect x="4.62354" y="0.802734" width="24" height="24" fill="white"/>
</clipPath>
</defs>
</svg>
